<?xml version="1.0" encoding="UTF-8" standalone="no"?>
<svg
   xmlns:dc="http://purl.org/dc/elements/1.1/"
   xmlns:cc="http://creativecommons.org/ns#"
   xmlns:rdf="http://www.w3.org/1999/02/22-rdf-syntax-ns#"
   xmlns:svg="http://www.w3.org/2000/svg"
   xmlns="http://www.w3.org/2000/svg"
   xmlns:sodipodi="http://sodipodi.sourceforge.net/DTD/sodipodi-0.dtd"
   xmlns:inkscape="http://www.inkscape.org/namespaces/inkscape"
   height="1650"
   width="1650"
   version="1.1"
   x="0px"
   y="0px"
   viewBox="0 0 1650 1650"
   xml:space="preserve"
   id="svg189"
   sodipodi:docname="fox.svg"
   inkscape:version="1.0 (4035a4fb49, 2020-05-01)"><metadata
   id="metadata195"><rdf:RDF><cc:Work
       rdf:about=""><dc:format>image/svg+xml</dc:format><dc:type
         rdf:resource="http://purl.org/dc/dcmitype/StillImage" /><dc:title></dc:title></cc:Work></rdf:RDF></metadata><defs
   id="defs193">
	
	
	
</defs><sodipodi:namedview
   inkscape:guide-bbox="true"
   showguides="true"
   inkscape:document-rotation="0"
   pagecolor="#ffffff"
   bordercolor="#666666"
   borderopacity="1"
   objecttolerance="10"
   gridtolerance="10"
   guidetolerance="10"
   inkscape:pageopacity="0"
   inkscape:pageshadow="2"
   inkscape:window-width="1920"
   inkscape:window-height="1052"
   id="namedview191"
   showgrid="false"
   inkscape:zoom="0.35355339"
   inkscape:cx="735.17269"
   inkscape:cy="970.18499"
   inkscape:window-x="0"
   inkscape:window-y="28"
   inkscape:window-maximized="0"
   inkscape:current-layer="svg189"><sodipodi:guide
     id="guide931"
     orientation="1,0"
     position="0,1604.3591" /><sodipodi:guide
     id="guide933"
     orientation="0,-1"
     position="-0.25170493,1649.9976" /></sodipodi:namedview>
<rect
   y="0.0024000001"
   x="0"
   height="1650"
   width="1650"
   id="rect929"
   style="fill:none;stroke-width:21.789;stroke-linecap:round;stroke-linejoin:round" /><g
   id="LiveType"
   style="display:none">
</g>
<g
   transform="matrix(0.99762928,0,0,1,-101.32832,-100.44512)"
   id="g177">
		<g
   id="g50">
			
				<radialGradient
   gradientUnits="userSpaceOnUse"
   gradientTransform="translate(1258.4413,532.88959)"
   fy="-153.06329"
   fx="389.09302"
   r="1876.7874"
   cy="-119.88482"
   cx="321.9653"
   id="SVGID_1_">
				<stop
   id="stop3"
   style="stop-color:#FFF44F"
   offset="0" />
				<stop
   id="stop5"
   style="stop-color:#FF980E"
   offset="0.2948518" />
				<stop
   id="stop7"
   style="stop-color:#FF5D36"
   offset="0.4315208" />
				<stop
   id="stop9"
   style="stop-color:#FF3750"
   offset="0.5302083" />
				<stop
   id="stop11"
   style="stop-color:#F5156C"
   offset="0.7493189" />
				<stop
   id="stop13"
   style="stop-color:#F1136E"
   offset="0.7647903" />
				<stop
   id="stop15"
   style="stop-color:#DA057A"
   offset="0.8800957" />
				<stop
   id="stop17"
   style="stop-color:#D2007F"
   offset="0.9527844" />
			</radialGradient>
			<path
   id="path20"
   d="M 1588.9476,424.26913 C 1439.4781,227.89421 1206.4467,105.50769 961.35773,100.6283 769.36273,96.806107 636.70404,154.36476 561.64685,200.63835 662.06891,142.5378 807.37231,109.58444 934.59747,111.20563 c 327.28973,4.16995 678.77573,226.4971 730.98103,627.28113 59.9271,460.06454 -261.254,844.03914 -713.11347,845.19834 -497.10666,1.2753 -799.45099,-437.8433 -720.43061,-832.25651 3.94603,-19.6955 1.97625,-38.85162 8.55483,-57.46631 3.76581,-69.35028 30.0256,-178.05359 86.67374,-289.12387 C 270.02574,434.3812 197.13264,527.854 161.14232,614.43762 109.25774,739.25873 90.972694,888.52826 107.43277,1030.5441 c 1.23914,10.69 2.3615,21.3492 3.76283,31.9482 66.57974,390.5934 406.64737,687.9544 816.21436,687.9544 457.33534,0 828.07794,-370.7426 828.07794,-828.07518 0,-186.99219 -62.005,-359.48559 -166.5403,-498.10239 z m -1310.65073,71.91193 -0.003,0.003 z"
   style="fill:url(#SVGID_1_)" />
			<g
   id="g29"
   style="opacity:0.67">
				
					<radialGradient
   gradientUnits="userSpaceOnUse"
   gradientTransform="translate(1258.4413,532.88959)"
   fy="-61.881432"
   fx="-980.08752"
   r="1110.733"
   cy="-42.245525"
   cx="-1019.8155"
   id="SVGID_2_">
					<stop
   id="stop22"
   style="stop-color:#B5007F"
   offset="0" />
					<stop
   id="stop24"
   style="stop-color:#F5156C;stop-opacity:0"
   offset="1" />
				</radialGradient>
				<path
   id="path27"
   d="M 1588.9476,424.26913 C 1439.4781,227.89421 1206.4467,105.50769 961.35773,100.6283 769.36273,96.806107 636.70404,154.36476 561.64685,200.63835 662.06891,142.5378 807.37231,109.58444 934.59747,111.20563 c 327.28973,4.16995 678.77573,226.4971 730.98103,627.28113 59.9271,460.06454 -261.254,844.03914 -713.11347,845.19834 -497.10666,1.2753 -799.45099,-437.8433 -720.43061,-832.25651 3.94603,-19.6955 1.97625,-38.85162 8.55483,-57.46631 3.76581,-69.35028 30.0256,-178.05359 86.67374,-289.12387 C 270.02574,434.3812 197.13264,527.854 161.14232,614.43762 109.25774,739.25873 90.972694,888.52826 107.43277,1030.5441 c 1.23914,10.69 2.3615,21.3492 3.76283,31.9482 66.57974,390.5934 406.64737,687.9544 816.21436,687.9544 457.33534,0 828.07794,-370.7426 828.07794,-828.07518 0,-186.99219 -62.005,-359.48559 -166.5403,-498.10239 z m -1310.65073,71.91193 -0.003,0.003 z"
   style="fill:url(#SVGID_2_)" />
			</g>
			
				<radialGradient
   gradientUnits="userSpaceOnUse"
   gradientTransform="translate(1258.4413,532.88959)"
   fy="-265.63489"
   fx="561.2262"
   r="2203.8347"
   cy="-226.67476"
   cx="482.40091"
   id="SVGID_3_">
				<stop
   id="stop31"
   style="stop-color:#FFDD00;stop-opacity:0.6"
   offset="0" />
				<stop
   id="stop33"
   style="stop-color:#FFD801;stop-opacity:0.524402"
   offset="0.0836672" />
				<stop
   id="stop35"
   style="stop-color:#FECA05;stop-opacity:0.4353322"
   offset="0.1822441" />
				<stop
   id="stop37"
   style="stop-color:#FEB20C;stop-opacity:0.3394448"
   offset="0.2883662" />
				<stop
   id="stop39"
   style="stop-color:#FD9115;stop-opacity:0.2387661"
   offset="0.399791" />
				<stop
   id="stop41"
   style="stop-color:#FB6621;stop-opacity:0.1343033"
   offset="0.5154039" />
				<stop
   id="stop43"
   style="stop-color:#F9332F;stop-opacity:0.028164"
   offset="0.6328723" />
				<stop
   id="stop45"
   style="stop-color:#F92433;stop-opacity:0"
   offset="0.6640424" />
			</radialGradient>
			<path
   id="path48"
   d="M 1588.9476,424.26913 C 1439.4781,227.89421 1206.4467,105.50769 961.35773,100.6283 769.36273,96.806107 636.70404,154.36476 561.64685,200.63835 662.06891,142.5378 807.37231,109.58444 934.59747,111.20563 c 327.28973,4.16995 678.77573,226.4971 730.98103,627.28113 59.9271,460.06454 -261.254,844.03914 -713.11347,845.19834 -497.10666,1.2753 -799.45099,-437.8433 -720.43061,-832.25651 3.94603,-19.6955 1.97625,-38.85162 8.55483,-57.46631 3.76581,-69.35028 30.0256,-178.05359 86.67374,-289.12387 C 270.02574,434.3812 197.13264,527.854 161.14232,614.43762 109.25774,739.25873 90.972694,888.52826 107.43277,1030.5441 c 1.23914,10.69 2.3615,21.3492 3.76283,31.9482 66.57974,390.5934 406.64737,687.9544 816.21436,687.9544 457.33534,0 828.07794,-370.7426 828.07794,-828.07518 0,-186.99219 -62.005,-359.48559 -166.5403,-498.10239 z m -1310.65073,71.91193 -0.003,0.003 z"
   style="fill:url(#SVGID_3_)" />
		</g>
		<g
   id="g74">
			<radialGradient
   gradientUnits="userSpaceOnUse"
   r="2843.1211"
   cy="1018.4619"
   cx="975.76648"
   id="SVGID_4_">
				<stop
   id="stop52"
   style="stop-color:#960E18"
   offset="0.1528494" />
				<stop
   id="stop54"
   style="stop-color:#CC2335;stop-opacity:0.5541388"
   offset="0.2061304" />
				<stop
   id="stop56"
   style="stop-color:#F13148;stop-opacity:0.1914039"
   offset="0.2494777" />
				<stop
   id="stop58"
   style="stop-color:#FF3750;stop-opacity:0"
   offset="0.2723507" />
			</radialGradient>
			<path
   id="path61"
   d="M 1588.9476,424.26913 C 1439.4781,227.89421 1206.4467,105.50769 961.35773,100.6283 769.36273,96.806107 636.70404,154.36476 561.64685,200.63835 662.06891,142.5378 807.37231,109.58444 934.59747,111.20563 c 327.28973,4.16995 678.77573,226.4971 730.98103,627.28113 59.9271,460.06454 -261.254,844.03914 -713.11347,845.19834 -497.10666,1.2753 -799.45099,-437.8433 -720.43061,-832.25651 3.94603,-19.6955 1.97625,-38.85162 8.55483,-57.46631 3.76581,-69.35028 30.0256,-178.05359 86.67374,-289.12387 C 270.02574,434.3812 197.13264,527.854 161.14232,614.43762 109.25774,739.25873 90.972694,888.52826 107.43277,1030.5441 c 1.23914,10.69 2.3615,21.3492 3.76283,31.9482 66.57974,390.5934 406.64737,687.9544 816.21436,687.9544 457.33534,0 828.07794,-370.7426 828.07794,-828.07518 0,-186.99219 -62.005,-359.48559 -166.5403,-498.10239 z m -1310.65073,71.91193 -0.003,0.003 z"
   style="fill:url(#SVGID_4_)" />
			<radialGradient
   gradientUnits="userSpaceOnUse"
   r="2843.1211"
   cy="982.71185"
   cx="760.61938"
   id="SVGID_5_">
				<stop
   id="stop63"
   style="stop-color:#960E18"
   offset="0.1129055" />
				<stop
   id="stop65"
   style="stop-color:#CC2335;stop-opacity:0.5541388"
   offset="0.1893459" />
				<stop
   id="stop67"
   style="stop-color:#F13148;stop-opacity:0.1914039"
   offset="0.2515348" />
				<stop
   id="stop69"
   style="stop-color:#FF3750;stop-opacity:0"
   offset="0.2843499" />
			</radialGradient>
			<path
   id="path72"
   d="M 1588.9476,424.26913 C 1439.4781,227.89421 1206.4467,105.50769 961.35773,100.6283 769.36273,96.806107 636.70404,154.36476 561.64685,200.63835 662.06891,142.5378 807.37231,109.58444 934.59747,111.20563 c 327.28973,4.16995 678.77573,226.4971 730.98103,627.28113 59.9271,460.06454 -261.254,844.03914 -713.11347,845.19834 -497.10666,1.2753 -799.45099,-437.8433 -720.43061,-832.25651 3.94603,-19.6955 1.97625,-38.85162 8.55483,-57.46631 3.76581,-69.35028 30.0256,-178.05359 86.67374,-289.12387 C 270.02574,434.3812 197.13264,527.854 161.14232,614.43762 109.25774,739.25873 90.972694,888.52826 107.43277,1030.5441 c 1.23914,10.69 2.3615,21.3492 3.76283,31.9482 66.57974,390.5934 406.64737,687.9544 816.21436,687.9544 457.33534,0 828.07794,-370.7426 828.07794,-828.07518 0,-186.99219 -62.005,-359.48559 -166.5403,-498.10239 z m -1310.65073,71.91193 -0.003,0.003 z"
   style="fill:url(#SVGID_5_)" />
		</g>
		
			<linearGradient
   gradientTransform="translate(1258.4413,532.88959)"
   y2="570.50092"
   x2="277.09613"
   y1="-272.08087"
   x1="-209.3687"
   gradientUnits="userSpaceOnUse"
   id="SVGID_6_">
			<stop
   id="stop76"
   style="stop-color:#FFBC04"
   offset="0" />
			<stop
   id="stop78"
   style="stop-color:#FFA202;stop-opacity:0.4886038"
   offset="0.2596934" />
			<stop
   id="stop80"
   style="stop-color:#FF8E00;stop-opacity:0"
   offset="0.5078125" />
		</linearGradient>
		<path
   id="path83"
   d="m 1665.5785,738.48676 c 6.6175,50.80285 8.5693,100.76171 6.2297,149.45483 27.4208,-4.05847 54.8916,-7.73651 82.4156,-10.92206 -9.154,-169.48529 -69.2499,-325.41656 -165.2762,-452.7504 C 1439.4781,227.89421 1206.4467,105.50769 961.35773,100.6283 769.36273,96.806107 636.70404,154.36476 561.64685,200.63835 662.06891,142.5378 807.37231,109.58444 934.59747,111.20563 c 327.28973,4.16995 678.77573,226.4971 730.98103,627.28113 z"
   style="fill:url(#SVGID_6_)" />
		<g
   id="g113">
			
				<radialGradient
   gradientUnits="userSpaceOnUse"
   gradientTransform="matrix(0.9588647,0,0,0.9588647,1293.9906,17.723545)"
   fy="313.63162"
   fx="323.34329"
   r="1837.1556"
   cy="346.10947"
   cx="257.63312"
   id="SVGID_7_">
				<stop
   id="stop85"
   style="stop-color:#FF980E"
   offset="0" />
				<stop
   id="stop87"
   style="stop-color:#FF7139"
   offset="0.295012" />
				<stop
   id="stop89"
   style="stop-color:#FF5B51"
   offset="0.4846462" />
				<stop
   id="stop91"
   style="stop-color:#FF4F5E"
   offset="0.6260016" />
				<stop
   id="stop93"
   style="stop-color:#FF4055"
   offset="0.73652" />
				<stop
   id="stop95"
   style="stop-color:#FF3750"
   offset="0.8428285" />
			</radialGradient>
			<path
   id="path98"
   d="M 1685.7084,715.6062 C 1639.17,296.76025 1264.7471,108.49115 934.59747,111.20563 c -127.2312,1.04609 -272.52856,31.33217 -372.95062,89.43272 -46.90912,28.92012 -71.31412,53.41315 -73.59055,55.75279 2.66147,-2.20443 10.61655,-8.73825 23.81272,-17.77346 0.43201,-0.3019 0.86804,-0.59739 1.30108,-0.8978 0.37519,-0.25476 0.76728,-0.51596 1.1504,-0.77438 47.8695,-33.00563 101.89758,-56.97713 159.02899,-73.67922 87.25299,-25.50804 181.72259,-34.06886 272.55151,-31.79179 373.387,21.4808 636.8839,330.65698 646.0569,659.75622 7.5919,272.37559 -215.8816,489.59279 -473.4804,502.17399 C 931.13318,1302.5546 754.66028,1212.115 668.4118,1031.1855 649.22461,990.93543 635.15308,950.02448 627.81409,900.56891 586.95374,625.22272 772.29901,390.41132 942.26361,332.27859 850.55884,252.37299 620.81805,257.79297 449.82407,383.29031 326.68106,473.66849 246.79782,611.17676 220.3322,775.22925 c -20.17821,125.07873 -1.17406,255.15095 48.37895,371.32045 50.49225,118.3712 132.60825,222.7265 235.84442,299.5685 112.10422,83.4428 247.09659,131.9972 386.23337,142.5726 20.51917,1.5597 41.09802,2.3226 61.67609,2.3226 547.08967,0 784.47817,-414.2937 733.24337,-875.4072 z"
   style="fill:url(#SVGID_7_)" />
			
				<radialGradient
   gradientUnits="userSpaceOnUse"
   gradientTransform="matrix(0.9588647,0,0,0.9588647,1293.9906,17.723545)"
   fy="313.63162"
   fx="323.34329"
   r="1837.1556"
   cy="346.10947"
   cx="257.63312"
   id="SVGID_8_">
				<stop
   id="stop100"
   style="stop-color:#FFDE08"
   offset="0.0840745" />
				<stop
   id="stop102"
   style="stop-color:#FFD609;stop-opacity:0.8320085"
   offset="0.2081029" />
				<stop
   id="stop104"
   style="stop-color:#FFBF0B;stop-opacity:0.5676619"
   offset="0.4032703" />
				<stop
   id="stop106"
   style="stop-color:#FF9B0F;stop-opacity:0.2420242"
   offset="0.643689" />
				<stop
   id="stop108"
   style="stop-color:#FF7B12;stop-opacity:0"
   offset="0.8223758" />
			</radialGradient>
			<path
   id="path111"
   d="M 1685.7084,715.6062 C 1639.17,296.76025 1264.7471,108.49115 934.59747,111.20563 c -127.2312,1.04609 -272.52856,31.33217 -372.95062,89.43272 -46.90912,28.92012 -71.31412,53.41315 -73.59055,55.75279 2.66147,-2.20443 10.61655,-8.73825 23.81272,-17.77346 0.43201,-0.3019 0.86804,-0.59739 1.30108,-0.8978 0.37519,-0.25476 0.76728,-0.51596 1.1504,-0.77438 47.8695,-33.00563 101.89758,-56.97713 159.02899,-73.67922 87.25299,-25.50804 181.72259,-34.06886 272.55151,-31.79179 373.387,21.4808 636.8839,330.65698 646.0569,659.75622 7.5919,272.37559 -215.8816,489.59279 -473.4804,502.17399 C 931.13318,1302.5546 754.66028,1212.115 668.4118,1031.1855 649.22461,990.93543 635.15308,950.02448 627.81409,900.56891 586.95374,625.22272 772.29901,390.41132 942.26361,332.27859 850.55884,252.37299 620.81805,257.79297 449.82407,383.29031 326.68106,473.66849 246.79782,611.17676 220.3322,775.22925 c -20.17821,125.07873 -1.17406,255.15095 48.37895,371.32045 50.49225,118.3712 132.60825,222.7265 235.84442,299.5685 112.10422,83.4428 247.09659,131.9972 386.23337,142.5726 20.51917,1.5597 41.09802,2.3226 61.67609,2.3226 547.08967,0 784.47817,-414.2937 733.24337,-875.4072 z"
   style="fill:url(#SVGID_8_)" />
		</g>
		<g
   id="g133">
			
				<radialGradient
   gradientUnits="userSpaceOnUse"
   gradientTransform="matrix(0.2472277,0.9689574,-1.011201,0.2580061,1761.3436,-432.81534)"
   r="863.96179"
   cy="897.6134"
   cx="1134.0427"
   id="SVGID_9_">
				<stop
   id="stop115"
   style="stop-color:#FF3750"
   offset="0.3633813" />
				<stop
   id="stop117"
   style="stop-color:#FF444B;stop-opacity:0.7894784"
   offset="0.4111364" />
				<stop
   id="stop119"
   style="stop-color:#FF7139;stop-opacity:0"
   offset="0.5902234" />
			</radialGradient>
			<path
   id="path122"
   d="M 1685.7084,715.6062 C 1639.17,296.76025 1264.7471,108.49115 934.59747,111.20563 c -127.2312,1.04609 -272.52856,31.33217 -372.95062,89.43272 -46.90912,28.92012 -71.31412,53.41315 -73.59055,55.75279 2.66147,-2.20443 10.61655,-8.73825 23.81272,-17.77346 0.43201,-0.3019 0.86804,-0.59739 1.30108,-0.8978 0.37519,-0.25476 0.76728,-0.51596 1.1504,-0.77438 47.8695,-33.00563 101.89758,-56.97713 159.02899,-73.67922 87.25299,-25.50804 181.72259,-34.06886 272.55151,-31.79179 373.387,21.4808 636.8839,330.65698 646.0569,659.75622 7.5919,272.37559 -215.8816,489.59279 -473.4804,502.17399 C 931.13318,1302.5546 754.66028,1212.115 668.4118,1031.1855 649.22461,990.93543 635.15308,950.02448 627.81409,900.56891 586.95374,625.22272 772.29901,390.41132 942.26361,332.27859 850.55884,252.37299 620.81805,257.79297 449.82407,383.29031 326.68106,473.66849 246.79782,611.17676 220.3322,775.22925 c -20.17821,125.07873 -1.17406,255.15095 48.37895,371.32045 50.49225,118.3712 132.60825,222.7265 235.84442,299.5685 112.10422,83.4428 247.09659,131.9972 386.23337,142.5726 20.51917,1.5597 41.09802,2.3226 61.67609,2.3226 547.08967,0 784.47817,-414.2937 733.24337,-875.4072 z"
   style="opacity:0.53;fill:url(#SVGID_9_)" />
			
				<radialGradient
   gradientUnits="userSpaceOnUse"
   gradientTransform="matrix(0.2472277,0.9689574,-0.9698079,0.2474447,1683.0427,-223.97795)"
   r="863.96179"
   cy="970.77887"
   cx="985.12354"
   id="SVGID_10_">
				<stop
   id="stop124"
   style="stop-color:#FF3750;stop-opacity:0.8"
   offset="0.2158888" />
				<stop
   id="stop126"
   style="stop-color:#FF444B;stop-opacity:0.6315827"
   offset="0.2702094" />
				<stop
   id="stop128"
   style="stop-color:#FF7139;stop-opacity:0"
   offset="0.4739173" />
			</radialGradient>
			<path
   id="path131"
   d="M 1685.7084,715.6062 C 1639.17,296.76025 1264.7471,108.49115 934.59747,111.20563 c -127.2312,1.04609 -272.52856,31.33217 -372.95062,89.43272 -46.90912,28.92012 -71.31412,53.41315 -73.59055,55.75279 2.66147,-2.20443 10.61655,-8.73825 23.81272,-17.77346 0.43201,-0.3019 0.86804,-0.59739 1.30108,-0.8978 0.37519,-0.25476 0.76728,-0.51596 1.1504,-0.77438 47.8695,-33.00563 101.89758,-56.97713 159.02899,-73.67922 87.25299,-25.50804 181.72259,-34.06886 272.55151,-31.79179 373.387,21.4808 636.8839,330.65698 646.0569,659.75622 7.5919,272.37559 -215.8816,489.59279 -473.4804,502.17399 C 931.13318,1302.5546 754.66028,1212.115 668.4118,1031.1855 649.22461,990.93543 635.15308,950.02448 627.81409,900.56891 586.95374,625.22272 772.29901,390.41132 942.26361,332.27859 850.55884,252.37299 620.81805,257.79297 449.82407,383.29031 326.68106,473.66849 246.79782,611.17676 220.3322,775.22925 c -20.17821,125.07873 -1.17406,255.15095 48.37895,371.32045 50.49225,118.3712 132.60825,222.7265 235.84442,299.5685 112.10422,83.4428 247.09659,131.9972 386.23337,142.5726 20.51917,1.5597 41.09802,2.3226 61.67609,2.3226 547.08967,0 784.47817,-414.2937 733.24337,-875.4072 z"
   style="opacity:0.53;fill:url(#SVGID_10_)" />
		</g>
		<g
   id="g148">
			
				<radialGradient
   gradientUnits="userSpaceOnUse"
   gradientTransform="matrix(0.9588647,0,0,0.9588647,1293.9906,17.723545)"
   r="3105.1294"
   cy="138.58418"
   cx="624.28052"
   id="SVGID_11_">
				<stop
   id="stop135"
   style="stop-color:#FFF44F"
   offset="0.0535657" />
				<stop
   id="stop137"
   style="stop-color:#FF980E"
   offset="0.4572717" />
				<stop
   id="stop139"
   style="stop-color:#FF8424"
   offset="0.5210502" />
				<stop
   id="stop141"
   style="stop-color:#FF7634"
   offset="0.587052" />
				<stop
   id="stop143"
   style="stop-color:#FF7139"
   offset="0.639343" />
			</radialGradient>
			<path
   id="path146"
   d="m 1118.4775,1293.4047 c 353.5772,-21.4526 504.8637,-313.41971 514.3464,-520.68314 14.8076,-323.65369 -177.6923,-672.69196 -686.9229,-641.24707 -90.82892,-2.27707 -185.29852,6.28375 -272.55151,31.79179 -76.48786,23.33424 -129.61194,53.84233 -159.02899,73.67922 -0.38056,0.26249 -0.7707,0.51083 -1.15039,0.77438 -0.45728,0.31048 -0.85584,0.59289 -1.30109,0.8978 -7.91843,5.53486 -15.66116,11.326 -23.2226,17.36869 14.15802,-9.66368 189.77021,-113.12609 433.7547,-81.18196 292.29118,38.2688 559.61978,265.18097 559.61978,564.57459 0,230.35443 -178.4497,406.2158 -387.3863,393.6613 -310.42708,-18.6526 -388.59578,-336.21288 -227.18819,-473.4232 -43.54388,-9.35596 -125.37671,8.96484 -182.34997,93.94567 -51.12134,76.2522 -48.23566,194.07703 -16.68464,277.62283 86.24848,180.9294 262.84235,273.5784 450.0657,262.2191 z"
   style="fill:url(#SVGID_11_)" />
		</g>
		<g
   id="g157">
			
				<linearGradient
   y2="1708.0002"
   x2="477.68073"
   y1="246.00212"
   x1="1321.7657"
   gradientUnits="userSpaceOnUse"
   id="SVGID_12_">
				<stop
   id="stop150"
   style="stop-color:#FFF44F;stop-opacity:0.8"
   offset="0" />
				<stop
   id="stop152"
   style="stop-color:#FFF44F;stop-opacity:0"
   offset="0.75" />
			</linearGradient>
			<path
   id="path155"
   d="m 1588.9447,424.26938 c -22.1631,-29.12476 -46.3696,-56.40384 -71.9824,-82.13016 -20.5445,-21.74927 -42.5611,-41.78833 -65.6836,-60.3479 13.3227,11.64917 26.1474,23.87695 38.2178,36.90674 44.7802,48.33984 80.2441,105.44681 100.9277,167.96634 43.1909,130.5469 40.3711,293.9136 -42.085,422.22659 -98.2617,152.90401 -258.2299,228.38381 -431.1549,224.70701 -7.478,0.033 -14.9853,-0.1025 -22.5512,-0.5566 C 784.21069,1114.3866 706.03931,796.82678 867.45044,659.61853 823.90063,650.26184 742.07446,668.58337 685.09937,753.56262 633.97632,829.81506 636.86206,947.63983 668.41479,1031.1835 649.22534,990.93695 635.15552,950.02386 627.81665,900.57068 586.95483,625.224 772.30151,390.40952 942.26739,332.27716 850.56079,252.3736 620.82202,257.79352 449.82346,383.29034 c -99.63871,73.1287 -170.92533,177.13263 -208.54252,301.0694 5.52979,-69.53979 31.86036,-173.40457 85.97901,-279.52151 -57.23145,29.54223 -130.12941,123.0176 -166.1133,209.59719 -51.88477,124.823 -70.173345,274.09424 -53.71583,416.11088 1.24512,10.686 2.36573,21.3464 3.76465,31.9482 66.57716,390.5916 406.64804,687.953 816.21833,687.953 457.3317,0 828.0763,-370.7446 828.0763,-828.07628 0,-186.99097 -62.0068,-359.48365 -166.5454,-498.10184 z"
   style="fill:url(#SVGID_12_)" />
		</g>
		
			<linearGradient
   gradientTransform="translate(1258.4413,532.88959)"
   y2="-421.97906"
   x2="-205.41115"
   y1="605.31421"
   x1="-205.41115"
   gradientUnits="userSpaceOnUse"
   id="SVGID_13_">
			<stop
   id="stop159"
   style="stop-color:#3A8EE6"
   offset="0" />
			<stop
   id="stop161"
   style="stop-color:#5C79F0"
   offset="0.2359339" />
			<stop
   id="stop163"
   style="stop-color:#9059FF"
   offset="0.6293269" />
			<stop
   id="stop165"
   style="stop-color:#C139E6"
   offset="1" />
		</linearGradient>
		<path
   id="path168"
   d="M 1590.4224,486.66534 C 1569.7375,424.14349 1534.2744,367.0358 1489.4937,318.70013 1436.7346,261.75293 1371.0321,218.48007 1301.4785,184.7802 1242.3054,156.10977 1180.5089,133.48283 1116.6451,119.42223 1002.256,94.237778 882.24274,94.684395 774.17615,117.42895 656.68976,142.15607 553.37262,192.87863 488.0332,256.29123 c 48.99268,-29.70043 117.33448,-53.78818 166.03113,-66.06305 225.97992,-56.96239 474.81507,4.73531 644.46987,167.0513 34.1094,32.63382 64.695,69.14941 89.4938,109.36984 101.21,164.15073 91.6341,370.51621 12.7255,492.22641 -58.6201,90.41687 -184.1494,175.23877 -301.2728,174.31727 179.6837,9.4059 347.2464,-66.1815 448.8568,-224.29987 82.4584,-128.31555 85.2747,-291.68231 42.0849,-422.22779 z"
   style="fill:url(#SVGID_13_)" />
		
			<linearGradient
   gradientTransform="translate(1258.4413,532.88959)"
   y2="406.88092"
   x2="250.12019"
   y1="-426.68872"
   x1="-583.44946"
   gradientUnits="userSpaceOnUse"
   id="SVGID_14_">
			<stop
   id="stop170"
   style="stop-color:#9059FF;stop-opacity:0"
   offset="0.8054287" />
			<stop
   id="stop172"
   style="stop-color:#6E008B;stop-opacity:0.5"
   offset="1" />
		</linearGradient>
		<path
   id="path175"
   d="M 1590.4224,486.66534 C 1569.7375,424.14349 1534.2744,367.0358 1489.4937,318.70013 1436.7346,261.75293 1371.0321,218.48007 1301.4785,184.7802 1242.3054,156.10977 1180.5089,133.48283 1116.6451,119.42223 1002.256,94.237778 882.24274,94.684395 774.17615,117.42895 656.68976,142.15607 553.37262,192.87863 488.0332,256.29123 c 48.99268,-29.70043 117.33448,-53.78818 166.03113,-66.06305 225.97992,-56.96239 474.81507,4.73531 644.46987,167.0513 34.1094,32.63382 64.695,69.14941 89.4938,109.36984 101.21,164.15073 91.6341,370.51621 12.7255,492.22641 -58.6201,90.41687 -184.1494,175.23877 -301.2728,174.31727 179.6837,9.4059 347.2464,-66.1815 448.8568,-224.29987 82.4584,-128.31555 85.2747,-291.68231 42.0849,-422.22779 z"
   style="fill:url(#SVGID_14_)" />
	</g><rect
   id="rect183"
   height="50"
   width="50"
   style="fill:none"
   y="49.66925"
   x="743.16492" />
<g
   id="Layer_3">
</g>
<g
   id="Layer_4">
</g>
<g
   id="Layer_5">
</g>
</svg>
